<?xml version="1.0" encoding="iso-8859-1"?>
<!-- Generator: Adobe Illustrator 19.0.0, SVG Export Plug-In . SVG Version: 6.00 Build 0)  -->
<svg version="1.1" id="Capa_1" xmlns="http://www.w3.org/2000/svg" xmlns:xlink="http://www.w3.org/1999/xlink" x="0px" y="0px"
	 viewBox="0 0 79.467 79.467" style="enable-background:new 0 0 79.467 79.467;" xml:space="preserve">
<g style="fill: #ffffff">
	<path d="M68.682,24.292c-1.457-1.704-3.578-2.681-5.819-2.681h-46.26c-2.242,0-4.363,0.977-5.821,2.683
		c-1.456,1.705-2.09,3.953-1.741,6.168l6.726,42.546c0.592,3.742,3.771,6.459,7.562,6.459h32.808c3.79,0,6.97-2.717,7.561-6.459
		l6.728-42.546C70.775,28.249,70.141,26.001,68.682,24.292z M64.499,29.525l-6.728,42.546c-0.128,0.81-0.815,1.396-1.635,1.396
		H23.329c-0.819,0-1.507-0.587-1.635-1.396l-6.726-42.545c-0.076-0.48,0.062-0.967,0.375-1.334c0.315-0.369,0.774-0.581,1.259-0.581
		h46.26c0.485,0,0.944,0.212,1.258,0.578C64.436,28.559,64.574,29.046,64.499,29.525z"/>
	<path d="M69.121,13.641C69.121,6.12,64.22,0,58.194,0h-36.92c-6.026,0-10.929,6.119-10.929,13.641v3.167h58.776V13.641z
		 M16.71,10.808C17.453,8.02,19.244,6,21.274,6h36.92c2.029,0,3.819,2.02,4.562,4.808H16.71z"/>
	<path d="M39.733,34.395c-1.469,0-2.66,1.191-2.66,2.661V65.01c0,1.469,1.191,2.661,2.66,2.661s2.66-1.192,2.66-2.661V37.056
		C42.393,35.587,41.202,34.395,39.733,34.395z"/>
	<path d="M25.801,34.527c-1.463,0.127-2.546,1.418-2.417,2.88l2.782,27.835c0.121,1.386,1.282,2.43,2.646,2.43
		c0.078,0,0.157-0.004,0.235-0.012c1.464-0.127,2.547-1.418,2.418-2.881l-2.782-27.834C28.554,35.48,27.252,34.371,25.801,34.527z"
		/>
	<path d="M53.325,34.527c-1.461-0.15-2.754,0.955-2.881,2.418l-2.782,27.834c-0.129,1.463,0.955,2.754,2.418,2.881
		c0.078,0.008,0.158,0.012,0.234,0.012c1.365,0,2.526-1.044,2.647-2.43l2.782-27.835C55.873,35.945,54.789,34.654,53.325,34.527z"/>
</g>
<g>
</g>
<g>
</g>
<g>
</g>
<g>
</g>
<g>
</g>
<g>
</g>
<g>
</g>
<g>
</g>
<g>
</g>
<g>
</g>
<g>
</g>
<g>
</g>
<g>
</g>
<g>
</g>
<g>
</g>
</svg>
